<svg id="DuplicateIcon" xmlns="http://www.w3.org/2000/svg" width="74.535" height="74.537" viewBox="0 0 74.535 74.537">
  <g id="Group_67" data-name="Group 67" transform="translate(10.703 14.801)">
    <path id="Path_65" data-name="Path 65" d="M48.888,53.43,43.249,36.075a.956.956,0,0,0-1.2-.614L.661,48.91a.956.956,0,0,0-.614,1.2l2.669,8.215c0,.016,0,.032,0,.048V76.625a.956.956,0,0,0,.956.956H47.184a.956.956,0,0,0,.956-.956V58.377a.956.956,0,0,0-.956-.956H39.7l8.576-2.787A.956.956,0,0,0,48.888,53.43Zm-2.66,5.9V75.669H4.626V59.333H9.92V69.98a.956.956,0,1,0,1.912,0V59.333h34.4ZM33.513,57.421H4.431L2.16,50.432,7.2,48.8l1.927,5.856a.956.956,0,0,0,1.816-.6L9.016,48.2l32.71-10.629,5.049,15.537Z" transform="translate(0 -35.415)" fill="#2f2d2d"/>
  </g>
  <g id="forbidden">
    <g id="Group_48" data-name="Group 48" transform="translate(0 0)">
      <path id="Path_57" data-name="Path 57" d="M62.661,9.951c-.011-.011-.02-.023-.031-.034A37.267,37.267,0,0,0,9.893,62.588c.011.011.02.023.031.035A37.267,37.267,0,0,0,62.661,9.951ZM14.318,14.309a31.058,31.058,0,0,1,41.615-2.088l-43.7,43.7A31.059,31.059,0,0,1,14.318,14.309ZM58.236,58.23a31.058,31.058,0,0,1-41.615,2.088l43.7-43.7A31.059,31.059,0,0,1,58.236,58.23Z" transform="translate(0.99 0.999)" fill="#2f2d2d"/>
    </g>
  </g>
</svg>
