<svg xmlns="http://www.w3.org/2000/svg" width="24.506" height="18.38" viewBox="0 0 24.506 18.38">
  <g id="Group_159" data-name="Group 159" transform="translate(-85.255 -242.62)">
    <path id="Path_67" data-name="Path 67"
      d="M62.411,57.878A1.021,1.021,0,0,1,61.39,58.9H38.926a1.021,1.021,0,0,1,0-2.042H61.39A1.021,1.021,0,0,1,62.411,57.878Z"
      transform="translate(47.35 185.763)" fill="#10224b" fill-rule="evenodd" />
    <g id="Group_71" data-name="Group 71" transform="translate(89.338 250.788)">
      <path id="Path_68" data-name="Path 68"
        d="M73.194,95.783A1.021,1.021,0,0,1,72.173,96.8h-14.3a1.021,1.021,0,1,1,0-2.042H72.173A1.021,1.021,0,0,1,73.194,95.783Z"
        transform="translate(-56.857 -94.762)" fill="#10224b" fill-rule="evenodd" />
    </g>
    <g id="Group_72" data-name="Group 72" transform="translate(93.42 258.958)">
      <path id="Path_69" data-name="Path 69"
        d="M83.978,133.688a1.021,1.021,0,0,1-1.021,1.021H76.831a1.021,1.021,0,0,1,0-2.042h6.127A1.021,1.021,0,0,1,83.978,133.688Z"
        transform="translate(-75.81 -132.667)" fill="#10224b" fill-rule="evenodd" />
    </g>
  </g>
</svg>
