<svg id="InvalidIcon" xmlns="http://www.w3.org/2000/svg" width="74.537" height="74.537" viewBox="0 0 74.537 74.537">
  <g id="Group_47" data-name="Group 47">
    <path id="Path_56" data-name="Path 56" d="M37.269,0A37.269,37.269,0,1,0,74.537,37.269,37.311,37.311,0,0,0,37.269,0Zm0,65.22A27.984,27.984,0,0,1,9.317,37.269,27.593,27.593,0,0,1,14.491,21.08L53.457,60.046A27.593,27.593,0,0,1,37.269,65.22ZM60.046,53.457,21.08,14.491A27.593,27.593,0,0,1,37.269,9.317,27.984,27.984,0,0,1,65.22,37.269,27.593,27.593,0,0,1,60.046,53.457Z" fill="#eb0202"/>
  </g>
</svg>
