<svg id="AppLogo" xmlns="http://www.w3.org/2000/svg" width="100%" height="100%" viewBox="0 0 799.293 200.531">
  <path id="Path_100" data-name="Path 100" d="M322.533,488a52.251,52.251,0,0,0-27.419,7.579,2.69,2.69,0,0,0-.233-1.073h0c-.828-1.849-1.862-3.091-3.3-3.091l-27.729-.285a8.937,8.937,0,0,0-8.924,8.924v145.5a3.143,3.143,0,0,0,3.091,2.884h36.213a3.143,3.143,0,0,0,3.078-2.884V615.135a5.833,5.833,0,0,1,8.032-5.406,45.692,45.692,0,0,0,17.111,3.22c32.553,0,54.385-23.9,54.385-59.493,0-35.851-21.831-65.417-54.385-65.417M313.6,577.564A17.4,17.4,0,0,1,297.843,567.5a5.833,5.833,0,0,1-.53-2.431V541.376a5.832,5.832,0,0,1,.53-2.431A17.4,17.4,0,0,1,313.6,528.882c11.33,0,18.947,9.894,18.947,24.729,0,14.421-7.618,23.9-18.947,23.9" transform="translate(-115.34 -455.021)" fill="#16315a"/>
  <path id="Path_101" data-name="Path 101" d="M626.068,557.172l30.5-56.144c.828-1.449.207-2.47-1.436-2.47H613.911a5.729,5.729,0,0,0-4.734,2.47l-19.154,38.425V465.384a3.143,3.143,0,0,0-3.091-2.884H550.719a3.13,3.13,0,0,0-3.091,2.884V584.293c0,10.8-7.618,20.383-7.618,24.573,0,5.781,2.315,8.627,7.126,8.627h39.848a3.1,3.1,0,0,0,3.091-3.091V574.27l23.642,40.8a5.6,5.6,0,0,0,4.32,2.47H661.92c1.655,0,2.47-1.035,1.448-2.47Z" transform="translate(-31.717 -462.5)" fill="#69488f"/>
  <path id="Path_102" data-name="Path 102" d="M691.025,477.74l-48.862,16.27c-2.056,1.436-3.039,2.845-3.039,4.371v26.345c-.181,1.513,1.138,2.263,2.47,2.263h13.063v83.252a2.794,2.794,0,0,0,2.845,2.845h33.523a2.755,2.755,0,0,0,2.587-2.845V479.615c0-1.293-.957-2.082-2.587-1.888" transform="translate(-2.648 -458.042)" fill="#69488f"/>
  <path id="Path_103" data-name="Path 103" d="M781.7,578.982H750.9c17.072-30.29,33.368-51.733,33.368-71.5,0-24.573-18.339-36.1-44.969-36.1-13.308,0-31.648,3.88-44.581,13.658a3.427,3.427,0,0,0-1.526,3.4l.892,32.437a2.134,2.134,0,0,0,3.233,1.591c9.648-4.4,27.91-12.6,33.808-12.6s9.325,2.794,9.325,7.76c0,12.584-18.495,33.2-44.7,66.865a8.524,8.524,0,0,0-1.9,4.785v22.827a2.716,2.716,0,0,0,2.845,2.794h86.537a2.832,2.832,0,0,0,2.858-2.794V583.276c0-3.984-2.393-4.359-4.384-4.32" transform="translate(13.203 -459.893)" fill="#69488f"/>
  <path id="Path_104" data-name="Path 104" d="M564.983,490.385h-40.65a3.88,3.88,0,0,0-3.712,2.884l-15.649,70.344L489.1,493.256a4.2,4.2,0,0,0-3.88-2.884H443.837a2.056,2.056,0,0,0-2.056,2.884l28.453,110.166a7.838,7.838,0,0,0,7.553,6.066l17.059.194c0,8.6-2.431,12.714-22.789,11.989h0a1.358,1.358,0,0,0-1.487,1.436l4.734,30.38a1.371,1.371,0,0,0,1.358,1.371h.634c38.179,0,47.09-19.84,56.558-51.914,3.583-10.916,33.368-109.61,33.368-109.61a2.186,2.186,0,0,0-2.276-2.884" transform="translate(-60.584 -454.326)" fill="#16315a"/>
  <path id="Path_105" data-name="Path 105" d="M423.152,610.042H463.8c4.966,0,8.5-6.57,5.38-10.554-5.173-6.583-7.023-18.275-7-21.353.323-41.18,1.824-92.512-51.488-89.964-16.464.776-32.967,4.32-44.711,11.743a3.208,3.208,0,0,0-1.035,3.88l10.01,25.155c.815,1.449,2.056,2.263,3.091,1.656,41.05-24.043,45.008,16.813,45.008,16.813-17.589-14.1-68.611-15.636-68.611,27.716,0,22.659,15.391,35.153,39.085,35.153,15.041,0,27.069-.336,28.712-.336Zm-2.3-31.376c-5.328,5.329-10.657,7.838-17.24,7.838-7.76,0-13.153-4.384-13.153-11.278s5.329-11.278,13.153-11.278c6.583,0,11.912,2.5,17.24,7.76Z" transform="translate(-86.148 -454.996)" fill="#16315a"/>
  <path id="Path_106" data-name="Path 106" d="M248.113,607.62h-81.1A19.995,19.995,0,0,1,147,587.612V510.956A20,20,0,0,1,167.008,491h81.1a20,20,0,0,1,20.008,19.995v76.617a20,20,0,0,1-20.008,20.008" transform="translate(-147 -454.14)" fill="#16315a"/>
  <path id="Path_107" data-name="Path 107" d="M174.88,549.586l23.655-11.123a2.936,2.936,0,0,1,2.509,0L224.4,549.548a2.716,2.716,0,0,1,0,4.941l-23.668,11.123a2.936,2.936,0,0,1-2.509,0l-23.28-11.1a2.7,2.7,0,0,1,0-4.941" transform="translate(-139.273 -440.3)" fill="#fff"/>
  <path id="Path_108" data-name="Path 108" d="M243.316,535.165l-37.7-17.913a4.8,4.8,0,0,0-4.061,0l-38.218,17.913a4.371,4.371,0,0,0,0,7.98l37.714,17.913a4.746,4.746,0,0,0,4.061,0l38.205-17.951a4.372,4.372,0,0,0,0-7.98" transform="translate(-142.967 -446.571)" fill="#69488f"/>
</svg>
