<svg id="QRCodeIcon" xmlns="http://www.w3.org/2000/svg" width="42.64" height="42.602" viewBox="0 0 42.64 42.602">
  <path id="Path_37" data-name="Path 37"
    d="M77.289,76.891V88.454a.836.836,0,0,0,.836.836H89.689a.836.836,0,0,0,.836-.836V86.262a.836.836,0,1,0-1.672,0v1.357H78.961V77.727h9.891V79.74a.836.836,0,1,0,1.672,0V76.891a.836.836,0,0,0-.836-.836H78.125A.836.836,0,0,0,77.289,76.891Zm0,0"
    transform="translate(-72.139 -71.011)" fill="#10224b" />
  <path id="Path_38" data-name="Path 38"
    d="M138.879,136.8a.836.836,0,0,0-.836.836v3.469a.836.836,0,0,0,.836.836h3.469a.836.836,0,0,0,.836-.836v-3.469a.836.836,0,0,0-.836-.836Zm2.633,3.469h-1.8v-1.8h1.8Zm0,0"
    transform="translate(-128.846 -127.713)" fill="#10224b" />
  <path id="Path_39" data-name="Path 39"
    d="M89.689,364.344H78.125a.836.836,0,0,0-.836.836v11.564a.836.836,0,0,0,.836.836H89.689a.836.836,0,0,0,.836-.836V365.18A.836.836,0,0,0,89.689,364.344Zm-.836,11.564H78.961v-9.891h9.891Zm0,0"
    transform="translate(-72.139 -340.093)" fill="#10224b" />
  <path id="Path_40" data-name="Path 40"
    d="M367.285,89.29h11.564a.836.836,0,0,0,.836-.836V76.891a.836.836,0,0,0-.836-.836H367.285a.836.836,0,0,0-.836.836V88.454A.836.836,0,0,0,367.285,89.29Zm.836-11.564h9.891v9.891h-9.891Zm0,0"
    transform="translate(-342.035 -71.011)" fill="#10224b" />
  <path id="Path_41" data-name="Path 41"
    d="M379.685,376.743V365.18a.836.836,0,0,0-.836-.836H367.285a.836.836,0,0,0-.836.836v11.564a.836.836,0,0,0,.836.836h11.564A.836.836,0,0,0,379.685,376.743Zm-1.672-.836h-9.891v-9.891h9.891Zm0,0"
    transform="translate(-342.035 -340.093)" fill="#10224b" />
  <path id="Path_42" data-name="Path 42"
    d="M156.585,91.864a.836.836,0,0,0,0-1.672H141.926V75.5a.836.836,0,0,0-1.672,0V90.192h-11.1a.836.836,0,0,0,0,1.672h11.1v14.5a.836.836,0,0,0,1.672,0v-14.5Zm0,0"
    transform="translate(-119.77 -69.712)" fill="#10224b" />
  <path id="Path_43" data-name="Path 43"
    d="M138.879,431.168h3.469a.836.836,0,0,0,.836-.836v-3.469a.836.836,0,0,0-.836-.836h-3.469a.836.836,0,0,0-.836.836v3.469A.836.836,0,0,0,138.879,431.168Zm.836-3.469h1.8v1.8h-1.8Zm0,0"
    transform="translate(-128.846 -397.667)" fill="#10224b" />
  <path id="Path_44" data-name="Path 44"
    d="M431.5,136.8h-3.469a.836.836,0,0,0-.836.836v3.469a.836.836,0,0,0,.836.836H431.5a.836.836,0,0,0,.836-.836v-3.469A.836.836,0,0,0,431.5,136.8Zm-.836,3.469h-1.8v-1.8h1.8Zm0,0"
    transform="translate(-398.732 -127.713)" fill="#10224b" />
  <path id="Path_45" data-name="Path 45"
    d="M428.031,431.168H431.5a.836.836,0,0,0,.836-.836v-3.469a.836.836,0,0,0-.836-.836h-3.469a.836.836,0,0,0-.836.836v3.469A.836.836,0,0,0,428.031,431.168Zm.836-3.469h1.8v1.8h-1.8Zm0,0"
    transform="translate(-398.732 -397.667)" fill="#10224b" />
  <path id="Path_46" data-name="Path 46"
    d="M77.641,307.479l-.045.01a.836.836,0,1,0,.384,1.628l.045-.01a.836.836,0,0,0-.383-1.628Zm0,0"
    transform="translate(-71.824 -286.996)" fill="#10224b" />
  <path id="Path_47" data-name="Path 47"
    d="M251.211,167.477l-.045.011a.836.836,0,0,0,.19,1.65.825.825,0,0,0,.192-.023l.045-.01a.836.836,0,0,0-.382-1.628Zm0,0"
    transform="translate(-233.83 -156.321)" fill="#10224b" />
  <path id="Path_48" data-name="Path 48"
    d="M.836,7.18a.836.836,0,0,0,.836-.836V2H5.854a.836.836,0,1,0,0-1.672H.836A.836.836,0,0,0,0,1.168V6.344A.836.836,0,0,0,.836,7.18Zm0,0"
    transform="translate(0 -0.332)" fill="#10224b" />
  <path id="Path_49" data-name="Path 49"
    d="M545.425.332h-5.019a.836.836,0,1,0,0,1.672h4.182v4.34a.836.836,0,0,0,1.672,0V1.168A.836.836,0,0,0,545.425.332Zm0,0"
    transform="translate(-503.621 -0.332)" fill="#10224b" />
  <path id="Path_50" data-name="Path 50"
    d="M5.854,542.18H1.672v-4.34a.836.836,0,0,0-1.672,0v5.176a.836.836,0,0,0,.836.836H5.854a.836.836,0,1,0,0-1.672Zm0,0"
    transform="translate(0 -501.25)" fill="#10224b" />
  <path id="Path_51" data-name="Path 51"
    d="M545.425,537a.836.836,0,0,0-.836.836v4.34h-4.182a.836.836,0,1,0,0,1.672h5.019a.836.836,0,0,0,.836-.836V537.84A.836.836,0,0,0,545.425,537Zm0,0"
    transform="translate(-503.621 -501.25)" fill="#10224b" />
</svg>
