<svg xmlns="http://www.w3.org/2000/svg" width="159.453" height="137.119" viewBox="0 0 159.453 137.119">
  <g id="cinema" transform="translate(0 -0.27)">
    <path id="Path_5872" data-name="Path 5872" d="M331.41,134.507l3.724-3.721,3.721,3.724-3.724,3.721Zm0,0" transform="translate(-222.35 -87.566)" fill="#10224b"/>
    <path id="Path_5873" data-name="Path 5873" d="M308.773,111.871l3.724-3.723,3.723,3.723-3.723,3.723Zm0,0" transform="translate(-207.162 -72.378)" fill="#10224b"/>
    <path id="Path_5874" data-name="Path 5874" d="M286.148,89.254l3.724-3.723,3.723,3.723-3.723,3.723Zm0,0" transform="translate(-191.983 -57.204)" fill="#10224b"/>
    <path id="Path_5875" data-name="Path 5875" d="M376.664,179.758l3.724-3.723,3.723,3.723-3.723,3.723Zm0,0" transform="translate(-252.712 -117.925)" fill="#10224b"/>
    <path id="Path_5876" data-name="Path 5876" d="M354.035,157.126l3.723-3.724,3.724,3.723-3.723,3.724Zm0,0" transform="translate(-237.529 -102.74)" fill="#10224b"/>
    <path id="Path_5877" data-name="Path 5877" d="M217.549,216.628a2.633,2.633,0,0,1-2.343-1.437l-4.755-9.325L200.115,207.5a2.632,2.632,0,0,1-2.275-4.475l7.4-7.4L200.5,186.3a2.633,2.633,0,0,1,3.54-3.541l9.329,4.74,7.4-7.4a2.633,2.633,0,0,1,4.476,2.274l-1.674,10.362,9.327,4.755a2.633,2.633,0,0,1-.791,4.944l-10.338,1.638-1.622,10.338a2.633,2.633,0,0,1-2.188,2.188A2.471,2.471,0,0,1,217.549,216.628Zm-5.619-16.3a2.635,2.635,0,0,1,2.346,1.438l1.94,3.809.67-4.212a2.634,2.634,0,0,1,2.19-2.188l4.211-.671-3.809-1.94a2.633,2.633,0,0,1-1.406-2.756l.668-4.225-3.013,3.022a2.633,2.633,0,0,1-3.057.481l-3.813-1.94,1.944,3.81a2.633,2.633,0,0,1-.485,3.056l-3.025,3.027,4.225-.668A2.469,2.469,0,0,1,211.93,200.323Zm0,0" transform="translate(-132.206 -120.12)" fill="#10224b"/>
    <path id="Path_5878" data-name="Path 5878" d="M157.139,39.814,144.107,26.782l-1.861,1.861a7.9,7.9,0,1,1-11.167-11.169l1.861-1.861L119.908,2.583a7.9,7.9,0,0,0-11.171,0L99.432,11.89,93.848,6.306a7.9,7.9,0,0,0-11.171,0L2.314,86.67a7.9,7.9,0,0,0,0,11.171l13.032,13.032,1.86-1.861a8.087,8.087,0,0,1,11.171,0,7.9,7.9,0,0,1,0,11.169l-1.861,1.861,13.032,13.035a7.9,7.9,0,0,0,11.167,0l9.307-9.309,5.587,5.584a7.9,7.9,0,0,0,11.168,0l80.364-80.369a7.9,7.9,0,0,0,0-11.171ZM46.989,131.349a2.63,2.63,0,0,1-3.724,0l-9.491-9.5a13.164,13.164,0,0,0-18.247-18.245L6.034,94.118a2.632,2.632,0,0,1,0-3.723L86.4,10.029a2.632,2.632,0,0,1,3.725,0l5.584,5.584L28.374,82.951a7.9,7.9,0,0,0,0,11.167L41.4,107.15l1.861-1.861a7.9,7.9,0,0,1,11.169,11.169l-1.864,1.861,3.725,3.723ZM153.417,47.262,73.051,127.626a2.632,2.632,0,0,1-3.723,0l-9.493-9.493A13.166,13.166,0,0,0,41.593,99.891l-9.5-9.5a2.632,2.632,0,0,1,0-3.723L112.46,6.306a2.632,2.632,0,0,1,3.725,0l9.493,9.478a13.164,13.164,0,0,0,18.242,18.245l9.5,9.5a2.634,2.634,0,0,1,0,3.723Zm0,0" fill="#10224b"/>
  </g>
</svg>
